<?xml version="1.0" encoding="UTF-8"?>
<svg data-bbox="0 0 739.995 227.692" xmlns="http://www.w3.org/2000/svg" height="228" width="740" data-type="color">
    <g>
        <path fill="#FF2449" d="M717.137 0H22.858C10.234 0 0 10.234 0 22.858v181.976c0 12.624 10.234 22.858 22.858 22.858h694.279c12.624 0 22.858-10.234 22.858-22.858V22.858C739.995 10.234 729.761 0 717.137 0" data-color="1"/>
        <path fill="#ffffff" d="M68.069 33.434c-7.9 4.686-23.452 22.556-23.6 27.242v7.76c0 9.834 9.192 18.477 17.537 18.477 10.02 0 18.369-8.307 18.369-18.164 0 9.857 8.065 18.164 18.088 18.164 10.02 0 17.825-8.307 17.825-18.164 0 9.857 8.575 18.164 18.595 18.164h.181c10.023 0 18.595-8.307 18.595-18.164 0 9.857 7.809 18.164 17.828 18.164 10.023 0 18.085-8.307 18.085-18.164 0 9.857 8.353 18.164 18.372 18.164 8.345 0 17.537-8.643 17.537-18.481v-7.756c-.147-4.687-15.704-22.556-23.599-27.242-24.54-.862-41.552-1.013-66.909-1.01-25.352 0-59.924.397-66.908 1.01zm48.094 48.846a20.7 20.7 0 0 1-3.526 4.543 20.96 20.96 0 0 1-14.688 5.99 21 21 0 0 1-14.713-5.994 19.7 19.7 0 0 1-3.368-4.452l-.003.003c-.953 1.675-2.283 3.111-3.655 4.456a21.03 21.03 0 0 1-14.718 5.987 6.4 6.4 0 0 1-1.984-.39 305 305 0 0 0-1.266 22.255v.034l-.045 8.802c.15 17.601-1.743 57.048 7.759 66.742 14.729 3.432 41.828 4.997 69.014 5.008h.007c27.186-.011 54.289-1.576 69.014-5.008 9.505-9.694 7.608-49.141 7.763-66.746l-.046-8.798v-.038c-.15-7.43-.572-14.851-1.266-22.25a6.3 6.3 0 0 1-1.984.39 21.03 21.03 0 0 1-14.717-5.991c-1.372-1.346-2.703-2.778-3.655-4.453h-.004a19.6 19.6 0 0 1-3.367 4.445 21 21 0 0 1-14.714 5.994 20.96 20.96 0 0 1-14.687-5.99 20.7 20.7 0 0 1-3.526-4.543 20.7 20.7 0 0 1-3.493 4.543 21 21 0 0 1-14.717 5.994 16 16 0 0 1-.597-.015h-.008c-.196 0-.396.015-.597.015a21 21 0 0 1-14.717-5.994 20.7 20.7 0 0 1-3.496-4.54zm-15.114 19.54v.011h.011c5.983.011 11.301 0 17.888 7.189 5.324-.55 10.673-.818 16.025-.805a153 153 0 0 1 16.025.805c6.592-7.189 11.906-7.181 17.893-7.189h.011v-.007c2.827 0 14.135-.001 22.019 22.136l8.466 30.368c6.274 22.59-2.01 23.142-12.34 23.165-15.322-.571-23.803-11.698-23.803-22.825-8.481 1.391-18.376 2.087-28.271 2.087s-19.789-.696-28.27-2.087c0 11.127-8.481 22.254-23.803 22.825-10.33-.023-18.61-.575-12.337-23.169l8.466-30.364c7.884-22.137 19.193-22.136 22.02-22.136zm33.924 17.401c-.015.018-16.131 14.815-19.026 20.08l10.553-.423v9.203c0 .431 4.233.253 8.473.056 4.241.197 8.478.375 8.478-.056v-9.203l10.552.423c-2.899-5.261-19.026-20.077-19.026-20.077zm151.717 70.744v-73.643h24.846v73.643zm12.574-79.634q-6.288 0-9.732-3.141-3.292-3.144-3.292-8.383 0-4.94 3.292-8.383 3.443-3.439 9.729-3.439 6.288 0 9.581 3.44 3.443 3.439 3.443 8.382 0 5.24-3.44 8.383-3.295 3.141-9.581 3.141m49.349 81.131q-10.779 0-16.32-5.688-5.385-5.836-5.385-16.165v-34.877h-9.88v-18.414h9.88v-17.96h24.846v17.964h16.169v18.406h-16.169v31.286q0 3.444 1.345 4.94 1.497 1.35 4.491 1.349 4.044 0 8.832-3.594l5.688 16.316q-4.338 2.998-9.879 4.789-5.538 1.652-13.618 1.652zm61.115 0q-17.065 0-26.944-9.729-9.729-9.728-9.729-28.289 0-13.474 5.537-22.602 5.688-9.434 14.226-12.725 8.98-3.444 16.619-3.443 9.577 0 16.017 3.893 6.436 3.741 9.43 8.231 3.149 4.49 4.49 7.034l-17.212 11.078q-2.388-4.94-5.238-7.786-2.842-2.842-6.879-2.842-5.692 0-8.98 4.49-3.292 4.49-3.292 13.621 0 9.88 3.893 14.521 3.886 4.641 11.074 4.641 5.692 0 9.43-2.097 3.892-2.102 7.336-5.39l7.937 18.557q-3.594 2.99-10.632 5.991-7.034 2.838-17.064 2.838zm36.154-1.497v-99.99h24.998v30.387q3.141-2.245 7.635-3.893 4.49-1.795 10.775-1.795 13.172 0 19.608 7.483 6.588 7.49 6.588 21.112v46.704h-24.998v-43.714q0-6.282-2.392-9.131-2.39-2.99-6.286-2.99-3.292 0-6.141 1.501-2.84 1.496-4.789 3.148v51.193h-24.998zm88.796 1.497q-5.987 0-9.43-3.44-3.44-3.442-3.439-8.832t3.439-8.98q3.443-3.591 9.43-3.591 5.688 0 9.131 3.591 3.447 3.59 3.447 8.98t-3.439 8.829q-3.288 3.443-9.132 3.443zm18.383-1.497v-73.643h24.847v73.643zm12.567-79.619q-6.285 0-9.728-3.144-3.292-3.14-3.292-8.38 0-4.94 3.288-8.382 3.447-3.444 9.732-3.444 6.29 0 9.581 3.44 3.44 3.447 3.439 8.386 0 5.24-3.439 8.38-3.291 3.144-9.581 3.144m56.156 81.116q-8.682 0-15.42-2.842-6.736-2.994-11.524-8.085-4.638-5.238-7.181-12.272-2.4-7.185-2.4-15.571 0-12.42 5.389-21.702 5.541-9.131 13.773-12.722 8.382-3.594 17.363-3.594 12.869 0 21.248 5.986 8.53 5.988 11.981 14.967 3.44 8.985 3.44 17.068 0 8.38-2.548 15.568-2.392 7.03-7.188 12.272-4.642 5.091-11.528 8.088-6.735 2.846-15.42 2.846zm0-19.162q6.285 0 9.131-5.235 2.842-5.39 2.842-14.37 0-8.533-2.993-13.621-2.99-5.091-8.98-5.091-5.84 0-8.829 5.091-2.99 5.088-2.99 13.621 0 8.98 2.846 14.366 3.001 5.242 8.98 5.242zM349.74 54.256q-2.904.135-4.885.516-1.981.353-3.176.922-1.194.57-1.709 1.33a2.9 2.9 0 0 0-.516 1.656q0 1.764 1.031 2.524 1.06.76 2.741.76 2.064 0 3.556-.733 1.52-.76 2.958-2.28zm-15.361-12.078q4.803-4.395 11.562-4.396 2.442 0 4.369.814 1.927.787 3.257 2.225 1.33 1.412 2.008 3.393.706 1.98.706 4.343v17.587h-3.04q-.95 0-1.465-.272-.516-.298-.814-1.167l-.598-2.008a26 26 0 0 1-2.062 1.682q-1.005.706-2.09 1.195a10.7 10.7 0 0 1-2.334.732q-1.221.272-2.714.272-1.764 0-3.257-.462-1.493-.488-2.578-1.438a6.4 6.4 0 0 1-1.683-2.361q-.597-1.412-.597-3.284 0-1.06.353-2.09a6.2 6.2 0 0 1 1.139-2.008q.815-.95 2.09-1.792 1.276-.841 3.121-1.465 1.873-.624 4.343-1.005 2.47-.407 5.645-.488v-1.629q0-2.795-1.194-4.125-1.194-1.357-3.447-1.357-1.628 0-2.714.38-1.059.38-1.873.868-.813.462-1.492.842a2.86 2.86 0 0 1-1.466.38q-.705 0-1.194-.353a3.2 3.2 0 0 1-.787-.869zm52.685-3.88-11.047 27.846h-6.079l-11.046-27.847h5.536q.76 0 1.249.353.516.353.678.896l5.374 14.873a40 40 0 0 1 1.33 5.048 63 63 0 0 1 .597-2.497q.326-1.248.787-2.551l5.483-14.873a1.83 1.83 0 0 1 .678-.896q.489-.353 1.167-.353h5.293zm17.593 15.958q-2.904.135-4.885.516-1.981.353-3.175.922t-1.71 1.33a2.9 2.9 0 0 0-.516 1.656q0 1.764 1.032 2.524 1.058.76 2.741.76 2.063 0 3.555-.733 1.52-.76 2.958-2.28zm-15.361-12.078q4.803-4.395 11.562-4.396 2.442 0 4.369.814 1.928.787 3.257 2.225 1.33 1.412 2.009 3.393.705 1.98.705 4.343v17.587h-3.039q-.95 0-1.466-.272-.516-.298-.814-1.167l-.597-2.008a27 27 0 0 1-2.063 1.682 12.7 12.7 0 0 1-2.09 1.195 10.7 10.7 0 0 1-2.334.732q-1.221.272-2.714.272-1.764 0-3.257-.462-1.492-.488-2.578-1.438a6.4 6.4 0 0 1-1.683-2.361q-.597-1.412-.597-3.284 0-1.06.353-2.09a6.2 6.2 0 0 1 1.14-2.008q.814-.95 2.09-1.792 1.275-.841 3.121-1.465 1.873-.624 4.342-1.005 2.47-.407 5.645-.488v-1.629q0-2.795-1.194-4.125-1.194-1.357-3.447-1.357-1.628 0-2.714.38-1.058.38-1.872.868-.815.462-1.493.842-.651.38-1.466.38-.705 0-1.194-.353a3.2 3.2 0 0 1-.787-.869zm35.164-3.88v27.846h-6.731V38.297h6.731zm.923-8.116q0 .87-.353 1.629-.353.76-.95 1.33a4.5 4.5 0 0 1-1.357.922 4.4 4.4 0 0 1-1.683.326 4.3 4.3 0 0 1-1.655-.326 4.6 4.6 0 0 1-1.33-.922 4.6 4.6 0 0 1-.923-1.33 4.1 4.1 0 0 1-.326-1.629q0-.896.326-1.682.353-.787.923-1.357c.57-.57.823-.679 1.33-.896a4 4 0 0 1 1.655-.353 4.1 4.1 0 0 1 1.683.353q.787.326 1.357.896.597.57.95 1.357a4.1 4.1 0 0 1 .353 1.682m12.696-4.37v40.332h-6.703V25.813h6.703zm21.39 28.444q-2.904.135-4.886.516-1.98.353-3.175.922t-1.71 1.33a2.9 2.9 0 0 0-.516 1.656q0 1.764 1.032 2.524 1.058.76 2.741.76 2.063 0 3.555-.733 1.52-.76 2.959-2.28zm-15.362-12.078q4.805-4.395 11.562-4.396 2.442 0 4.37.814 1.926.787 3.256 2.225 1.33 1.412 2.009 3.393.706 1.98.706 4.343v17.587h-3.04q-.95 0-1.466-.272-.516-.298-.814-1.167l-.597-2.008a26 26 0 0 1-2.063 1.682 12.7 12.7 0 0 1-2.09 1.195q-1.084.488-2.334.732-1.221.272-2.714.272-1.764 0-3.257-.462-1.492-.488-2.578-1.438a6.4 6.4 0 0 1-1.683-2.361q-.597-1.412-.597-3.284 0-1.06.353-2.09a6.2 6.2 0 0 1 1.14-2.008q.814-.95 2.09-1.792 1.276-.841 3.121-1.465 1.873-.624 4.342-1.005 2.47-.407 5.646-.488v-1.629q0-2.795-1.195-4.125-1.194-1.357-3.446-1.357-1.63 0-2.714.38-1.059.38-1.873.868-.815.462-1.493.842-.652.38-1.465.38-.706 0-1.195-.353a3.3 3.3 0 0 1-.787-.869zm34.92 16.746q1.14 1.384 2.47 1.954a7.3 7.3 0 0 0 2.849.57q1.548 0 2.769-.543 1.248-.57 2.117-1.737.868-1.194 1.33-3.012.46-1.845.461-4.397 0-4.587-1.52-6.622-1.52-2.063-4.37-2.063-1.926 0-3.365.896-1.439.868-2.741 2.47zm0-17.207q1.683-1.764 3.718-2.795 2.063-1.059 4.695-1.059 2.416 0 4.343.95a9.1 9.1 0 0 1 3.311 2.741q1.384 1.765 2.117 4.288t.733 5.673q0 3.392-.842 6.16-.84 2.77-2.415 4.75a10.86 10.86 0 0 1-3.745 3.04q-2.198 1.086-4.886 1.086-1.302 0-2.361-.272a8.34 8.34 0 0 1-3.61-1.818 16 16 0 0 1-1.411-1.493l-.299 1.873q-.162.705-.569 1.004-.381.299-1.059.299h-4.424V25.813h6.704zm30.879-15.904v40.33h-6.703v-40.33zm24.619 23.205q0-1.303-.379-2.443a5.7 5.7 0 0 0-1.086-2.035q-.733-.87-1.873-1.357-1.113-.516-2.605-.516-2.904 0-4.587 1.655-1.656 1.657-2.117 4.696zm-12.783 4.044q.163 2.145.76 3.718.597 1.546 1.574 2.578a6.4 6.4 0 0 0 2.307 1.52q1.357.489 2.986.489 1.628 0 2.795-.38a12.5 12.5 0 0 0 2.063-.842 34 34 0 0 0 1.547-.84q.678-.38 1.303-.38.841 0 1.248.623l1.927 2.443a11.5 11.5 0 0 1-2.497 2.198 15 15 0 0 1-2.904 1.412q-1.492.516-3.067.733a22 22 0 0 1-3.012.217q-2.905 0-5.401-.95a12.3 12.3 0 0 1-4.343-2.85q-1.845-1.9-2.904-4.668-1.058-2.796-1.058-6.46 0-2.85.922-5.346.924-2.525 2.633-4.37 1.737-1.872 4.207-2.958 2.497-1.086 5.618-1.086 2.632 0 4.858.841a10.5 10.5 0 0 1 3.827 2.47q1.602 1.602 2.497 3.963.923 2.334.923 5.346 0 1.52-.326 2.063-.326.516-1.248.516zm49.36-15.199q3.095 0 5.619 1.004 2.55 1.005 4.342 2.85 1.818 1.845 2.796 4.505t.977 5.944q0 3.312-.977 5.971-.978 2.66-2.796 4.533-1.792 1.872-4.342 2.876-2.524 1.005-5.619 1.005-3.12 0-5.672-1.005t-4.37-2.876q-1.791-1.873-2.795-4.533-.977-2.66-.977-5.97 0-3.285.977-5.945 1.004-2.66 2.795-4.505 1.819-1.845 4.37-2.85t5.672-1.004m0 23.531q3.474 0 5.13-2.334 1.683-2.334 1.683-6.84 0-4.505-1.683-6.866-1.656-2.361-5.13-2.361-3.528 0-5.238 2.388-1.682 2.361-1.682 6.84t1.682 6.839q1.71 2.334 5.238 2.334m25.117-19.677a18 18 0 0 1 1.765-1.547 10.8 10.8 0 0 1 1.981-1.221 10.4 10.4 0 0 1 2.252-.787 10.7 10.7 0 0 1 2.606-.299q2.28 0 4.044.787 1.764.76 2.931 2.171 1.194 1.385 1.791 3.339.625 1.927.625 4.26v17.724h-6.704V48.42q0-2.552-1.167-3.936-1.167-1.41-3.556-1.41a7 7 0 0 0-3.256.786q-1.521.788-2.877 2.144v20.139h-6.704V38.297h4.098q1.303 0 1.71 1.222z" data-color="2"/>
    </g>
</svg>
